<?xml version="1.0" encoding="UTF-8" standalone="no"?>
<svg xmlns="http://www.w3.org/2000/svg" xmlns:xlink="http://www.w3.org/1999/xlink" width="747.34698" height="1046.2856" version="1.0">
  <g transform="translate(2.2448993 -.6479052)">
    <g id="a" stroke="#000" stroke-width=".4492622" transform="translate(-704.74175 -486.27034) scale(2.22587)">
      <path fill="#bfbfbf" d="M563.18541 384.24425v-79.44178l5.24387-13.47786 5.24388 13.47786v79.44178" overflow="visible" style="marker:none"/>
      <path fill="#bbb700" d="m563.67728 387.91264-12.24426-.00002s-3.67632-2.26961-3.65672-3.89005c.01961-1.62044 3.83818-3.89004 3.83818-3.89004l16.81481-.00002 16.81481.00002s3.81856 2.2696 3.83817 3.89004c.0196 1.62044-3.65671 3.89005-3.65671 3.89005l-12.24427.00002.04769 36.62557c0 2.89257-9.5517 2.73238-9.5517 0v-36.62557z" overflow="visible" style="marker:none"/>
    </g>
    <use xlink:href="#a" width="747.34698" height="1046.2856" transform="rotate(180 367.890315 504.5676)"/>
    <g transform="translate(-2.0407968 -11.714273)">
      <g id="b" fill="red" font-family="Arial" font-size="144" font-weight="400" text-anchor="middle" transform="translate(2.7682687 .6819287)">
        <text xml:space="preserve" x="49.5937" y="158.36212" style="text-align:center"><tspan x="49.5937" y="158.36212" font-family="Arial Narrow" style="text-align:center;-inkscape-font-specification:Arial Narrow">K</tspan></text>
        <text xml:space="preserve" x="58.31245" y="298.36212" style="text-align:center"><tspan x="58.31245" y="298.36212" font-family="Arial Narrow" style="text-align:center;-inkscape-font-specification:Arial Narrow">♥</tspan></text>
      </g>
      <use xlink:href="#b" width="747.34698" height="1046.2856" transform="rotate(180 373.46939 535.505)"/>
      <path fill="none" stroke="#000" stroke-linecap="square" stroke-width="8.5" d="M119.18367 104.07644h508.57144v862.85712H119.18367z" opacity=".77520004"/>
    </g>
    <text xml:space="preserve" id="c" x="199.02234" y="264.92499" fill="red" fill-opacity="1" stroke="none" stroke-linecap="butt" stroke-linejoin="miter" stroke-opacity="1" stroke-width="1" font-family="Arial" font-size="250" font-style="normal" font-weight="400" style="text-align:center" text-anchor="middle"><tspan x="199.02234" y="264.92499">♥</tspan></text>
    <use xlink:href="#c" width="747.34698" height="1046.2856" transform="matrix(1 0 0 -1 342 1039.5814)"/>
    <path id="C" fill="red" fill-opacity="1" fill-rule="nonzero" stroke="red" stroke-dasharray="none" stroke-dashoffset="0" stroke-linecap="butt" stroke-linejoin="miter" stroke-miterlimit="4" stroke-opacity="1" stroke-width="1" marker-end="none" marker-mid="none" marker-start="none" d="m309.89796 316.21927 128.92857-12.14286c10.02504 2.07724 4.97442 12.38251 9.39396 20.60887 42.92534 79.89958 170.34074 156.81916 172.17238 185.41415l-497.92349.11984c21.99024-32.47884 96.67689-101.97803 187.42858-165.42857v-28.57143z" display="inline" overflow="visible" style="marker:none" visibility="visible"/>
    <g id="D">
      <path fill="#ddbdd0" stroke="#ddbdd0" d="M327.64657 222.35831c-3.00753 9.27436-2.56893 18.31207-3.42248 26.24693 0 1.79462-6.86077 21.8498-6.86077 21.8498l.05842 2.84285c-.04454.33365 2.96779 3.57095 6.04854 3.90465l-1.32381 14.20065c-1.11164.76664 5.78559-.96276 5.78559.29993 0 1.42087-6.38602 4.03466-6.38602 4.03466 0 6.75605-4.34507 16.2705-.78843 19.82714 4.1688 4.16879 41.29596-.06499 41.29596-.06499 47.99288 0 48.57143-35 48.57143-35 0-40.40926-2.5823-66.014-2.5823-66.014-2.48201-.01439-18.08525-2.82071-34.9718-1.10924-18.54827 1.87988-29.64383 4.19936-45.42433 8.98162z" overflow="visible" style="marker:none" transform="translate(-2.2448993 .6479052)"/>
      <path fill="#b2b2b2" stroke="#000" d="m380.22773 208.80604 9.02082 140.45622 63.6011-13.30155-9.29989-113.98469-63.32203-13.16998z" overflow="visible" style="marker:none" transform="translate(-2.2448993 .6479052)"/>
      <path fill="none" fill-opacity=".70348834" stroke="#000" stroke-linecap="round" stroke-linejoin="round" stroke-width="4" d="M328.77304 237.5561c8.08859-1.16138 14.27507.3491 21.48614 6.17974" overflow="visible" style="marker:none" transform="translate(.0000043)"/>
      <path id="d" fill="none" fill-opacity=".70348834" fill-rule="nonzero" stroke="#000" stroke-dasharray="none" stroke-dashoffset="0" stroke-linecap="butt" stroke-linejoin="miter" stroke-miterlimit="4" stroke-opacity="1" stroke-width="1" marker-end="none" marker-mid="none" marker-start="none" d="m386.69643 212.89279 9.02863 134.84064" display="inline" opacity="1" overflow="visible" style="marker:none" transform="translate(-2.2448993 .6479052)" visibility="visible"/>
      <use xlink:href="#d" id="e" width="747.34698" height="1046.2856" x="0" y="0" transform="translate(8.0000047 -1.0714284)"/>
      <use xlink:href="#e" id="f" width="747.34698" height="1046.2856" x="0" y="0" transform="translate(8.0000047 -1.6901465)"/>
      <use xlink:href="#f" id="g" width="747.34698" height="1046.2856" x="0" y="0" transform="translate(8.0000047 -1.6870519)"/>
      <use xlink:href="#g" id="h" width="747.34698" height="1046.2856" x="0" y="0" transform="translate(8.0000047 -2.051373)"/>
      <use xlink:href="#h" id="i" width="747.34698" height="1046.2856" x="0" y="0" transform="translate(8.0000047 -1.2482048)"/>
      <use xlink:href="#i" width="747.34698" height="1046.2856" transform="translate(8.0000047 -1.8232232)"/>
      <path fill="#fff" stroke="#000" stroke-width=".5" d="M334.32544 243.64262c4.21184.8881 4.63962 1.05126 8.1246 5.12634-3.66828 1.53734-5.01132 1.66092-8.87234 1.3605-7.82105-1.30025-5.56827-7.36846.74774-6.48684z" overflow="visible" style="marker:none"/>
      <path fill="#165044" stroke="#000" stroke-linecap="round" stroke-linejoin="round" stroke-width=".1204178" d="M336.57021 246.05542a.75761443.69447988 0 1 1-1.51523 0 .75761443.69447988 0 1 1 1.51523 0z" transform="matrix(4.1172 0 0 4.18751 -1049.1044 -783.59413)"/>
      <path stroke="#000" stroke-linecap="round" stroke-linejoin="round" stroke-width=".5" d="M334.0727724 246.8927288a.757615.6944804 0 1 1-1.51523 0 .757615.6944804 0 1 1 1.51523 0z"/>
      <path id="j" fill="none" fill-opacity=".70348834" fill-rule="nonzero" stroke="#5a5a5a" stroke-dasharray="none" stroke-dashoffset="0" stroke-linecap="butt" stroke-linejoin="miter" stroke-miterlimit="4" stroke-opacity="1" stroke-width="1" marker-end="none" marker-mid="none" marker-start="none" d="m317.85332 305.78177-2.8125 6.65178" display="inline" opacity="1" overflow="visible" style="marker:none" visibility="visible"/>
      <use xlink:href="#j" id="k" width="747.34698" height="1046.2856" x="0" y="0" transform="translate(2)"/>
      <use xlink:href="#k" id="l" width="747.34698" height="1046.2856" x="0" y="0" transform="translate(2)"/>
      <use xlink:href="#l" id="m" width="747.34698" height="1046.2856" x="0" y="0" transform="translate(2)"/>
      <use xlink:href="#m" id="n" width="747.34698" height="1046.2856" x="0" y="0" transform="translate(2)"/>
      <use xlink:href="#n" id="o" width="747.34698" height="1046.2856" x="0" y="0" transform="translate(2)"/>
      <use xlink:href="#o" id="p" width="747.34698" height="1046.2856" x="0" y="0" transform="translate(2)"/>
      <use xlink:href="#p" id="q" width="747.34698" height="1046.2856" x="0" y="0" transform="translate(2)"/>
      <use xlink:href="#q" id="r" width="747.34698" height="1046.2856" x="0" y="0" transform="translate(2)"/>
      <use xlink:href="#r" width="747.34698" height="1046.2856" transform="translate(2.1785714)"/>
      <use xlink:href="#j" id="s" width="747.34698" height="1046.2856" x="0" y="0" transform="translate(.8035714 7.2857143)"/>
      <use xlink:href="#s" id="t" width="747.34698" height="1046.2856" x="0" y="0" transform="translate(2)"/>
      <use xlink:href="#t" id="u" width="747.34698" height="1046.2856" x="0" y="0" transform="translate(2)"/>
      <use xlink:href="#u" id="v" width="747.34698" height="1046.2856" x="0" y="0" transform="translate(2)"/>
      <use xlink:href="#v" id="w" width="747.34698" height="1046.2856" x="0" y="0" transform="translate(2)"/>
      <use xlink:href="#w" id="x" width="747.34698" height="1046.2856" x="0" y="0" transform="translate(2)"/>
      <use xlink:href="#x" id="y" width="747.34698" height="1046.2856" x="0" y="0" transform="translate(2)"/>
      <use xlink:href="#y" id="z" width="747.34698" height="1046.2856" x="0" y="0" transform="translate(2.0446429)"/>
      <use xlink:href="#z" id="A" width="747.34698" height="1046.2856" x="0" y="0" transform="translate(2)"/>
      <use xlink:href="#A" id="B" width="747.34698" height="1046.2856" x="0" y="0" transform="translate(2)"/>
      <use xlink:href="#B" width="747.34698" height="1046.2856" transform="translate(2)"/>
      <path fill="none" fill-rule="evenodd" stroke="#484848" stroke-linecap="round" d="M336.2628 290.82808c.11998-.09493.27826.03358.32689.14373.13842.31354-.14932.62647-.43548.7079-.60758.1729-1.14906-.3624-1.25885-.92395-.19772-1.01132.6848-1.86251 1.63082-1.99316 1.5328-.21167 2.78049 1.12616 2.92238 2.57375.21357 2.17895-1.69464 3.91481-3.76784 4.05671-2.0146.13789-9.42535-2.3369-11.75215-3.39313" transform="translate(.07652928 -2.0306662)"/>
      <path fill="#bbb700" stroke="#000" stroke-linejoin="round" d="m323 225.28565 126 15.5 2-42-10.16987-37.95448-19.93478 34.52803-9.73926-36.34743-18.73053 32.44223-9.27396-34.6109-18.15292 31.44179-8.81911-32.91338-19.78816 34.27409v-34.85995l-8.37911 31.27124L323 225.28565z" overflow="visible" style="marker:none" transform="translate(-2.2448993 .6479052)"/>
    </g>
    <use xlink:href="#C" width="747.34698" height="1046.2856" transform="rotate(180 371.683665 509.2033)"/>
    <use xlink:href="#D" width="747.34698" height="1046.2856" transform="rotate(180 371.683665 509.2033)"/>
    <path id="E" fill="#727272" fill-opacity="1" fill-rule="nonzero" stroke="none" stroke-dasharray="none" stroke-dashoffset="0" stroke-linecap="butt" stroke-linejoin="miter" stroke-miterlimit="4" stroke-opacity="1" stroke-width="1" d="M560.0051 164.80025v194.56641h1V164.80025l-.5-1.24218-.5 1.24218z" display="inline" opacity="1" overflow="visible" style="marker:none" visibility="visible"/>
    <use xlink:href="#E" width="747.34698" height="1046.2856" transform="rotate(180 367.88841 504.57285)"/>
  </g>
</svg>